<mxfile host="65bd71144e">
    <diagram id="9vjOgMi_-kmMXBmjn-yL" name="sample_0">
        <mxGraphModel dx="817" dy="778" grid="1" gridSize="10" guides="1" tooltips="1" connect="1" arrows="1" fold="1" page="1" pageScale="1" pageWidth="850" pageHeight="1100" math="0" shadow="0">
            <root>
                <mxCell id="0"/>
                <mxCell id="1" parent="0"/>
                <mxCell id="11" value="topic_src" style="edgeStyle=none;html=1;" parent="1" source="3" target="6" edge="1">
                    <mxGeometry relative="1" as="geometry"/>
                </mxCell>
                <mxCell id="3" value="node_src" style="rounded=1;whiteSpace=wrap;html=1;" parent="1" vertex="1">
                    <mxGeometry x="280" y="40" width="80" height="40" as="geometry"/>
                </mxCell>
                <mxCell id="12" value="topic1" style="edgeStyle=none;html=1;" parent="1" source="6" target="7" edge="1">
                    <mxGeometry relative="1" as="geometry"/>
                </mxCell>
                <mxCell id="6" value="node_1" style="rounded=1;whiteSpace=wrap;html=1;" parent="1" vertex="1">
                    <mxGeometry x="280" y="120" width="80" height="40" as="geometry"/>
                </mxCell>
                <mxCell id="13" value="topic2" style="edgeStyle=none;html=1;" parent="1" source="7" target="8" edge="1">
                    <mxGeometry relative="1" as="geometry"/>
                </mxCell>
                <mxCell id="7" value="node_2" style="rounded=1;whiteSpace=wrap;html=1;" parent="1" vertex="1">
                    <mxGeometry x="280" y="200" width="80" height="40" as="geometry"/>
                </mxCell>
                <mxCell id="14" value="topic_dst" style="edgeStyle=none;html=1;" parent="1" source="8" target="9" edge="1">
                    <mxGeometry relative="1" as="geometry"/>
                </mxCell>
                <mxCell id="8" value="node_3" style="rounded=1;whiteSpace=wrap;html=1;" parent="1" vertex="1">
                    <mxGeometry x="280" y="280" width="80" height="40" as="geometry"/>
                </mxCell>
                <mxCell id="9" value="node_dst" style="rounded=1;whiteSpace=wrap;html=1;" parent="1" vertex="1">
                    <mxGeometry x="280" y="360" width="80" height="40" as="geometry"/>
                </mxCell>
                <mxCell id="txTijlPQlxZSKKlh6Voo-14" value="" style="verticalLabelPosition=bottom;html=1;verticalAlign=top;strokeWidth=2;shape=mxgraph.lean_mapping.physical_pull;pointerEvents=1;gradientColor=#ffffff;" parent="1" vertex="1">
                    <mxGeometry x="370" y="50" width="20" height="20" as="geometry"/>
                </mxCell>
                <mxCell id="txTijlPQlxZSKKlh6Voo-15" value="10m (100Hz)" style="text;html=1;align=center;verticalAlign=middle;resizable=0;points=[];autosize=1;strokeColor=none;fillColor=none;" parent="1" vertex="1">
                    <mxGeometry x="390" y="50" width="80" height="20" as="geometry"/>
                </mxCell>
                <mxCell id="CvMBg8xXAvlzuwdvMXEH-14" value="Latency: 2ms" style="text;html=1;align=left;verticalAlign=middle;resizable=0;points=[];autosize=1;strokeColor=none;fillColor=none;" parent="1" vertex="1">
                    <mxGeometry x="370" y="130" width="90" height="20" as="geometry"/>
                </mxCell>
                <mxCell id="CvMBg8xXAvlzuwdvMXEH-16" value="Latency: 2ms" style="text;html=1;align=left;verticalAlign=middle;resizable=0;points=[];autosize=1;strokeColor=none;fillColor=none;" parent="1" vertex="1">
                    <mxGeometry x="370" y="210" width="90" height="20" as="geometry"/>
                </mxCell>
                <mxCell id="CvMBg8xXAvlzuwdvMXEH-17" value="Latency: 2ms" style="text;html=1;align=left;verticalAlign=middle;resizable=0;points=[];autosize=1;strokeColor=none;fillColor=none;" parent="1" vertex="1">
                    <mxGeometry x="370" y="290" width="90" height="20" as="geometry"/>
                </mxCell>
            </root>
        </mxGraphModel>
    </diagram>
    <diagram name="sample_huge_latency" id="mxuA525K33RhErhYU1E9">
        <mxGraphModel dx="817" dy="778" grid="1" gridSize="10" guides="1" tooltips="1" connect="1" arrows="1" fold="1" page="1" pageScale="1" pageWidth="850" pageHeight="1100" math="0" shadow="0">
            <root>
                <mxCell id="OHC2bFC03OFlJWpYehHt-0"/>
                <mxCell id="OHC2bFC03OFlJWpYehHt-1" parent="OHC2bFC03OFlJWpYehHt-0"/>
                <mxCell id="OHC2bFC03OFlJWpYehHt-2" value="topic_src" style="edgeStyle=none;html=1;" parent="OHC2bFC03OFlJWpYehHt-1" source="OHC2bFC03OFlJWpYehHt-3" target="OHC2bFC03OFlJWpYehHt-5" edge="1">
                    <mxGeometry relative="1" as="geometry"/>
                </mxCell>
                <mxCell id="OHC2bFC03OFlJWpYehHt-3" value="node_src" style="rounded=1;whiteSpace=wrap;html=1;" parent="OHC2bFC03OFlJWpYehHt-1" vertex="1">
                    <mxGeometry x="280" y="40" width="80" height="40" as="geometry"/>
                </mxCell>
                <mxCell id="OHC2bFC03OFlJWpYehHt-4" value="topic1" style="edgeStyle=none;html=1;" parent="OHC2bFC03OFlJWpYehHt-1" source="OHC2bFC03OFlJWpYehHt-5" target="OHC2bFC03OFlJWpYehHt-7" edge="1">
                    <mxGeometry relative="1" as="geometry"/>
                </mxCell>
                <mxCell id="OHC2bFC03OFlJWpYehHt-5" value="node_1" style="rounded=1;whiteSpace=wrap;html=1;" parent="OHC2bFC03OFlJWpYehHt-1" vertex="1">
                    <mxGeometry x="280" y="120" width="80" height="40" as="geometry"/>
                </mxCell>
                <mxCell id="OHC2bFC03OFlJWpYehHt-6" value="topic2" style="edgeStyle=none;html=1;" parent="OHC2bFC03OFlJWpYehHt-1" source="OHC2bFC03OFlJWpYehHt-7" target="OHC2bFC03OFlJWpYehHt-9" edge="1">
                    <mxGeometry relative="1" as="geometry"/>
                </mxCell>
                <mxCell id="OHC2bFC03OFlJWpYehHt-7" value="node_2" style="rounded=1;whiteSpace=wrap;html=1;" parent="OHC2bFC03OFlJWpYehHt-1" vertex="1">
                    <mxGeometry x="280" y="200" width="80" height="40" as="geometry"/>
                </mxCell>
                <mxCell id="OHC2bFC03OFlJWpYehHt-8" value="topic_dst" style="edgeStyle=none;html=1;" parent="OHC2bFC03OFlJWpYehHt-1" source="OHC2bFC03OFlJWpYehHt-9" target="OHC2bFC03OFlJWpYehHt-10" edge="1">
                    <mxGeometry relative="1" as="geometry"/>
                </mxCell>
                <mxCell id="OHC2bFC03OFlJWpYehHt-9" value="node_3" style="rounded=1;whiteSpace=wrap;html=1;" parent="OHC2bFC03OFlJWpYehHt-1" vertex="1">
                    <mxGeometry x="280" y="280" width="80" height="40" as="geometry"/>
                </mxCell>
                <mxCell id="OHC2bFC03OFlJWpYehHt-10" value="node_dst" style="rounded=1;whiteSpace=wrap;html=1;" parent="OHC2bFC03OFlJWpYehHt-1" vertex="1">
                    <mxGeometry x="280" y="360" width="80" height="40" as="geometry"/>
                </mxCell>
                <mxCell id="OHC2bFC03OFlJWpYehHt-11" value="" style="verticalLabelPosition=bottom;html=1;verticalAlign=top;strokeWidth=2;shape=mxgraph.lean_mapping.physical_pull;pointerEvents=1;gradientColor=#ffffff;" parent="OHC2bFC03OFlJWpYehHt-1" vertex="1">
                    <mxGeometry x="370" y="50" width="20" height="20" as="geometry"/>
                </mxCell>
                <mxCell id="OHC2bFC03OFlJWpYehHt-12" value="10m (100Hz)" style="text;html=1;align=center;verticalAlign=middle;resizable=0;points=[];autosize=1;strokeColor=none;fillColor=none;" parent="OHC2bFC03OFlJWpYehHt-1" vertex="1">
                    <mxGeometry x="390" y="50" width="80" height="20" as="geometry"/>
                </mxCell>
                <mxCell id="OHC2bFC03OFlJWpYehHt-13" value="Latency: 2ms" style="text;html=1;align=left;verticalAlign=middle;resizable=0;points=[];autosize=1;strokeColor=none;fillColor=none;" parent="OHC2bFC03OFlJWpYehHt-1" vertex="1">
                    <mxGeometry x="370" y="130" width="90" height="20" as="geometry"/>
                </mxCell>
                <mxCell id="OHC2bFC03OFlJWpYehHt-14" value="Latency: 50ms" style="text;html=1;align=left;verticalAlign=middle;resizable=0;points=[];autosize=1;strokeColor=none;fillColor=none;" parent="OHC2bFC03OFlJWpYehHt-1" vertex="1">
                    <mxGeometry x="370" y="210" width="90" height="20" as="geometry"/>
                </mxCell>
                <mxCell id="OHC2bFC03OFlJWpYehHt-15" value="Latency: 2ms" style="text;html=1;align=left;verticalAlign=middle;resizable=0;points=[];autosize=1;strokeColor=none;fillColor=none;" parent="OHC2bFC03OFlJWpYehHt-1" vertex="1">
                    <mxGeometry x="370" y="290" width="90" height="20" as="geometry"/>
                </mxCell>
            </root>
        </mxGraphModel>
    </diagram>
    <diagram name="sample_sub3pub1" id="gjKZkmfSsGnakPykTE62">
        <mxGraphModel dx="817" dy="778" grid="1" gridSize="10" guides="1" tooltips="1" connect="1" arrows="1" fold="1" page="1" pageScale="1" pageWidth="850" pageHeight="1100" math="0" shadow="0">
            <root>
                <mxCell id="vB24-UaPn49rOX97teCF-0"/>
                <mxCell id="vB24-UaPn49rOX97teCF-1" parent="vB24-UaPn49rOX97teCF-0"/>
                <mxCell id="vB24-UaPn49rOX97teCF-26" value="node_sub3pub1" style="rounded=1;whiteSpace=wrap;html=1;align=left;verticalAlign=top;" parent="vB24-UaPn49rOX97teCF-1" vertex="1">
                    <mxGeometry x="180" y="215" width="280" height="70" as="geometry"/>
                </mxCell>
                <mxCell id="vB24-UaPn49rOX97teCF-14" value="topic_src" style="edgeStyle=none;html=1;" parent="vB24-UaPn49rOX97teCF-1" source="vB24-UaPn49rOX97teCF-3" target="vB24-UaPn49rOX97teCF-7" edge="1">
                    <mxGeometry x="-0.6" y="30" relative="1" as="geometry">
                        <mxPoint as="offset"/>
                    </mxGeometry>
                </mxCell>
                <mxCell id="vB24-UaPn49rOX97teCF-3" value="node_src" style="rounded=1;whiteSpace=wrap;html=1;" parent="vB24-UaPn49rOX97teCF-1" vertex="1">
                    <mxGeometry x="320" y="30" width="80" height="40" as="geometry"/>
                </mxCell>
                <mxCell id="vB24-UaPn49rOX97teCF-18" style="edgeStyle=none;html=1;exitX=0.5;exitY=1;exitDx=0;exitDy=0;" parent="vB24-UaPn49rOX97teCF-1" source="vB24-UaPn49rOX97teCF-5" target="vB24-UaPn49rOX97teCF-9" edge="1">
                    <mxGeometry relative="1" as="geometry"/>
                </mxCell>
                <mxCell id="vB24-UaPn49rOX97teCF-5" value="node_src0" style="rounded=1;whiteSpace=wrap;html=1;" parent="vB24-UaPn49rOX97teCF-1" vertex="1">
                    <mxGeometry x="200" y="120" width="80" height="40" as="geometry"/>
                </mxCell>
                <mxCell id="vB24-UaPn49rOX97teCF-30" style="edgeStyle=elbowEdgeStyle;rounded=0;elbow=vertical;html=1;" parent="vB24-UaPn49rOX97teCF-1" source="vB24-UaPn49rOX97teCF-7" target="vB24-UaPn49rOX97teCF-27" edge="1">
                    <mxGeometry relative="1" as="geometry"/>
                </mxCell>
                <mxCell id="vB24-UaPn49rOX97teCF-7" value="node_1" style="rounded=1;whiteSpace=wrap;html=1;" parent="vB24-UaPn49rOX97teCF-1" vertex="1">
                    <mxGeometry x="320" y="120" width="80" height="40" as="geometry"/>
                </mxCell>
                <mxCell id="vB24-UaPn49rOX97teCF-9" value="cb0" style="rounded=1;whiteSpace=wrap;html=1;" parent="vB24-UaPn49rOX97teCF-1" vertex="1">
                    <mxGeometry x="280" y="240" width="40" height="30" as="geometry"/>
                </mxCell>
                <mxCell id="vB24-UaPn49rOX97teCF-10" value="node_dst" style="rounded=1;whiteSpace=wrap;html=1;" parent="vB24-UaPn49rOX97teCF-1" vertex="1">
                    <mxGeometry x="320" y="360" width="80" height="40" as="geometry"/>
                </mxCell>
                <mxCell id="vB24-UaPn49rOX97teCF-32" style="rounded=0;elbow=vertical;html=1;exitX=0.5;exitY=1;exitDx=0;exitDy=0;" parent="vB24-UaPn49rOX97teCF-1" source="vB24-UaPn49rOX97teCF-12" target="vB24-UaPn49rOX97teCF-28" edge="1">
                    <mxGeometry relative="1" as="geometry"/>
                </mxCell>
                <mxCell id="vB24-UaPn49rOX97teCF-12" value="node_2" style="rounded=1;whiteSpace=wrap;html=1;" parent="vB24-UaPn49rOX97teCF-1" vertex="1">
                    <mxGeometry x="440" y="120" width="80" height="40" as="geometry"/>
                </mxCell>
                <mxCell id="vB24-UaPn49rOX97teCF-22" value="" style="edgeStyle=elbowEdgeStyle;elbow=vertical;endArrow=classic;html=1;rounded=0;entryX=0.5;entryY=0;entryDx=0;entryDy=0;exitX=0.5;exitY=1;exitDx=0;exitDy=0;" parent="vB24-UaPn49rOX97teCF-1" source="vB24-UaPn49rOX97teCF-3" target="vB24-UaPn49rOX97teCF-5" edge="1">
                    <mxGeometry width="50" height="50" relative="1" as="geometry">
                        <mxPoint x="380" y="100" as="sourcePoint"/>
                        <mxPoint x="280" y="140" as="targetPoint"/>
                        <Array as="points">
                            <mxPoint x="310" y="100"/>
                        </Array>
                    </mxGeometry>
                </mxCell>
                <mxCell id="vB24-UaPn49rOX97teCF-25" value="" style="edgeStyle=elbowEdgeStyle;elbow=vertical;endArrow=classic;html=1;rounded=0;" parent="vB24-UaPn49rOX97teCF-1" target="vB24-UaPn49rOX97teCF-12" edge="1">
                    <mxGeometry width="50" height="50" relative="1" as="geometry">
                        <mxPoint x="360" y="80" as="sourcePoint"/>
                        <mxPoint x="260" y="140" as="targetPoint"/>
                    </mxGeometry>
                </mxCell>
                <mxCell id="vB24-UaPn49rOX97teCF-35" style="edgeStyle=none;rounded=0;html=1;elbow=vertical;" parent="vB24-UaPn49rOX97teCF-1" source="vB24-UaPn49rOX97teCF-27" target="vB24-UaPn49rOX97teCF-10" edge="1">
                    <mxGeometry relative="1" as="geometry"/>
                </mxCell>
                <mxCell id="vB24-UaPn49rOX97teCF-36" value="topic_sub3pub1" style="edgeLabel;html=1;align=center;verticalAlign=middle;resizable=0;points=[];" parent="vB24-UaPn49rOX97teCF-35" vertex="1" connectable="0">
                    <mxGeometry x="-0.2667" y="-4" relative="1" as="geometry">
                        <mxPoint x="44" y="27" as="offset"/>
                    </mxGeometry>
                </mxCell>
                <mxCell id="vB24-UaPn49rOX97teCF-27" value="cb1" style="rounded=1;whiteSpace=wrap;html=1;" parent="vB24-UaPn49rOX97teCF-1" vertex="1">
                    <mxGeometry x="340" y="240" width="40" height="30" as="geometry"/>
                </mxCell>
                <mxCell id="vB24-UaPn49rOX97teCF-28" value="cb2" style="rounded=1;whiteSpace=wrap;html=1;" parent="vB24-UaPn49rOX97teCF-1" vertex="1">
                    <mxGeometry x="400" y="240" width="40" height="30" as="geometry"/>
                </mxCell>
                <mxCell id="vB24-UaPn49rOX97teCF-33" value="" style="edgeStyle=elbowEdgeStyle;elbow=vertical;endArrow=classic;html=1;rounded=0;exitX=0.5;exitY=1;exitDx=0;exitDy=0;" parent="vB24-UaPn49rOX97teCF-1" source="vB24-UaPn49rOX97teCF-28" target="vB24-UaPn49rOX97teCF-10" edge="1">
                    <mxGeometry width="50" height="50" relative="1" as="geometry">
                        <mxPoint x="370" y="90" as="sourcePoint"/>
                        <mxPoint x="490" y="130" as="targetPoint"/>
                    </mxGeometry>
                </mxCell>
                <mxCell id="vB24-UaPn49rOX97teCF-34" value="" style="edgeStyle=elbowEdgeStyle;elbow=vertical;endArrow=classic;html=1;rounded=0;entryX=0.5;entryY=0;entryDx=0;entryDy=0;" parent="vB24-UaPn49rOX97teCF-1" source="vB24-UaPn49rOX97teCF-9" target="vB24-UaPn49rOX97teCF-10" edge="1">
                    <mxGeometry width="50" height="50" relative="1" as="geometry">
                        <mxPoint x="430" y="280" as="sourcePoint"/>
                        <mxPoint x="360" y="350" as="targetPoint"/>
                    </mxGeometry>
                </mxCell>
                <mxCell id="vB24-UaPn49rOX97teCF-37" value="Publishes a msg when subscribes 3 msgs" style="shape=callout;whiteSpace=wrap;html=1;perimeter=calloutPerimeter;direction=south;align=left;" parent="vB24-UaPn49rOX97teCF-1" vertex="1">
                    <mxGeometry x="480" y="230" width="175" height="55" as="geometry"/>
                </mxCell>
                <mxCell id="vB24-UaPn49rOX97teCF-40" value="" style="verticalLabelPosition=bottom;html=1;verticalAlign=top;strokeWidth=2;shape=mxgraph.lean_mapping.physical_pull;pointerEvents=1;gradientColor=#ffffff;" parent="vB24-UaPn49rOX97teCF-1" vertex="1">
                    <mxGeometry x="425" y="40" width="20" height="20" as="geometry"/>
                </mxCell>
                <mxCell id="vB24-UaPn49rOX97teCF-42" value="10m (100Hz)" style="text;html=1;align=center;verticalAlign=middle;resizable=0;points=[];autosize=1;strokeColor=none;fillColor=none;" parent="vB24-UaPn49rOX97teCF-1" vertex="1">
                    <mxGeometry x="445" y="40" width="80" height="20" as="geometry"/>
                </mxCell>
                <mxCell id="vB24-UaPn49rOX97teCF-43" value="Latency:&lt;br&gt;2ms" style="text;html=1;align=left;verticalAlign=middle;resizable=0;points=[];autosize=1;strokeColor=none;fillColor=none;" parent="vB24-UaPn49rOX97teCF-1" vertex="1">
                    <mxGeometry x="170" y="160" width="60" height="30" as="geometry"/>
                </mxCell>
                <mxCell id="vB24-UaPn49rOX97teCF-46" value="Latency:&lt;br&gt;2ms" style="text;html=1;align=left;verticalAlign=middle;resizable=0;points=[];autosize=1;strokeColor=none;fillColor=none;" parent="vB24-UaPn49rOX97teCF-1" vertex="1">
                    <mxGeometry x="370" y="160" width="60" height="30" as="geometry"/>
                </mxCell>
                <mxCell id="vB24-UaPn49rOX97teCF-47" value="Latency:&lt;br&gt;6ms" style="text;html=1;align=left;verticalAlign=middle;resizable=0;points=[];autosize=1;strokeColor=none;fillColor=none;" parent="vB24-UaPn49rOX97teCF-1" vertex="1">
                    <mxGeometry x="500" y="160" width="60" height="30" as="geometry"/>
                </mxCell>
                <mxCell id="7xZqvO7QffkLgxsuUksF-0" value="Latency:&lt;br&gt;2ms" style="text;html=1;align=left;verticalAlign=middle;resizable=0;points=[];autosize=1;strokeColor=none;fillColor=none;" parent="vB24-UaPn49rOX97teCF-1" vertex="1">
                    <mxGeometry x="180" y="285" width="60" height="30" as="geometry"/>
                </mxCell>
            </root>
        </mxGraphModel>
    </diagram>
    <diagram name="sample_store" id="AfXQ2xHLUjIpnygbBuJf">
        <mxGraphModel dx="817" dy="778" grid="1" gridSize="10" guides="1" tooltips="1" connect="1" arrows="1" fold="1" page="1" pageScale="1" pageWidth="850" pageHeight="1100" math="0" shadow="0">
            <root>
                <mxCell id="ZaQTHbMihgLtNvDP0Ows-0"/>
                <mxCell id="ZaQTHbMihgLtNvDP0Ows-1" parent="ZaQTHbMihgLtNvDP0Ows-0"/>
                <mxCell id="yO9Czlw1sz3PZUdJERW6-0" value="topic_src" style="edgeStyle=none;html=1;" parent="ZaQTHbMihgLtNvDP0Ows-1" source="yO9Czlw1sz3PZUdJERW6-1" target="yO9Czlw1sz3PZUdJERW6-3" edge="1">
                    <mxGeometry relative="1" as="geometry"/>
                </mxCell>
                <mxCell id="yO9Czlw1sz3PZUdJERW6-1" value="node_src" style="rounded=1;whiteSpace=wrap;html=1;" parent="ZaQTHbMihgLtNvDP0Ows-1" vertex="1">
                    <mxGeometry x="280" y="40" width="80" height="40" as="geometry"/>
                </mxCell>
                <mxCell id="yO9Czlw1sz3PZUdJERW6-2" value="topic1" style="edgeStyle=none;html=1;" parent="ZaQTHbMihgLtNvDP0Ows-1" source="yO9Czlw1sz3PZUdJERW6-3" target="yO9Czlw1sz3PZUdJERW6-5" edge="1">
                    <mxGeometry relative="1" as="geometry"/>
                </mxCell>
                <mxCell id="yO9Czlw1sz3PZUdJERW6-3" value="node_1" style="rounded=1;whiteSpace=wrap;html=1;" parent="ZaQTHbMihgLtNvDP0Ows-1" vertex="1">
                    <mxGeometry x="280" y="120" width="80" height="40" as="geometry"/>
                </mxCell>
                <mxCell id="yO9Czlw1sz3PZUdJERW6-4" value="topic2" style="edgeStyle=none;html=1;" parent="ZaQTHbMihgLtNvDP0Ows-1" source="yO9Czlw1sz3PZUdJERW6-5" target="yO9Czlw1sz3PZUdJERW6-7" edge="1">
                    <mxGeometry relative="1" as="geometry"/>
                </mxCell>
                <mxCell id="yO9Czlw1sz3PZUdJERW6-5" value="node_store" style="rounded=1;whiteSpace=wrap;html=1;" parent="ZaQTHbMihgLtNvDP0Ows-1" vertex="1">
                    <mxGeometry x="280" y="200" width="80" height="40" as="geometry"/>
                </mxCell>
                <mxCell id="yO9Czlw1sz3PZUdJERW6-6" value="topic_dst" style="edgeStyle=none;html=1;" parent="ZaQTHbMihgLtNvDP0Ows-1" source="yO9Czlw1sz3PZUdJERW6-7" target="yO9Czlw1sz3PZUdJERW6-8" edge="1">
                    <mxGeometry relative="1" as="geometry"/>
                </mxCell>
                <mxCell id="yO9Czlw1sz3PZUdJERW6-7" value="node_3" style="rounded=1;whiteSpace=wrap;html=1;" parent="ZaQTHbMihgLtNvDP0Ows-1" vertex="1">
                    <mxGeometry x="280" y="280" width="80" height="40" as="geometry"/>
                </mxCell>
                <mxCell id="yO9Czlw1sz3PZUdJERW6-8" value="node_dst" style="rounded=1;whiteSpace=wrap;html=1;" parent="ZaQTHbMihgLtNvDP0Ows-1" vertex="1">
                    <mxGeometry x="280" y="360" width="80" height="40" as="geometry"/>
                </mxCell>
                <mxCell id="yO9Czlw1sz3PZUdJERW6-9" value="" style="verticalLabelPosition=bottom;html=1;verticalAlign=top;strokeWidth=2;shape=mxgraph.lean_mapping.physical_pull;pointerEvents=1;gradientColor=#ffffff;" parent="ZaQTHbMihgLtNvDP0Ows-1" vertex="1">
                    <mxGeometry x="370" y="50" width="20" height="20" as="geometry"/>
                </mxCell>
                <mxCell id="yO9Czlw1sz3PZUdJERW6-10" value="10m (100Hz)" style="text;html=1;align=center;verticalAlign=middle;resizable=0;points=[];autosize=1;strokeColor=none;fillColor=none;" parent="ZaQTHbMihgLtNvDP0Ows-1" vertex="1">
                    <mxGeometry x="390" y="50" width="80" height="20" as="geometry"/>
                </mxCell>
                <mxCell id="yO9Czlw1sz3PZUdJERW6-11" value="Latency: 2ms" style="text;html=1;align=left;verticalAlign=middle;resizable=0;points=[];autosize=1;strokeColor=none;fillColor=none;" parent="ZaQTHbMihgLtNvDP0Ows-1" vertex="1">
                    <mxGeometry x="370" y="130" width="90" height="20" as="geometry"/>
                </mxCell>
                <mxCell id="yO9Czlw1sz3PZUdJERW6-12" value="Latency: 2ms" style="text;html=1;align=left;verticalAlign=middle;resizable=0;points=[];autosize=1;strokeColor=none;fillColor=none;" parent="ZaQTHbMihgLtNvDP0Ows-1" vertex="1">
                    <mxGeometry x="370" y="210" width="90" height="20" as="geometry"/>
                </mxCell>
                <mxCell id="yO9Czlw1sz3PZUdJERW6-13" value="Latency: 2ms" style="text;html=1;align=left;verticalAlign=middle;resizable=0;points=[];autosize=1;strokeColor=none;fillColor=none;" parent="ZaQTHbMihgLtNvDP0Ows-1" vertex="1">
                    <mxGeometry x="370" y="290" width="90" height="20" as="geometry"/>
                </mxCell>
                <mxCell id="zfcbdTLrRoK7upnIdt8X-0" value="&lt;div style=&quot;text-align: left&quot;&gt;&lt;span&gt;Publishes a msg when subscribes 3 msgs&lt;/span&gt;&lt;/div&gt;" style="shape=callout;whiteSpace=wrap;html=1;perimeter=calloutPerimeter;direction=south;" parent="ZaQTHbMihgLtNvDP0Ows-1" vertex="1">
                    <mxGeometry x="460" y="192.5" width="175" height="55" as="geometry"/>
                </mxCell>
            </root>
        </mxGraphModel>
    </diagram>
    <diagram name="sample_store_timer_1" id="363C3ElGqFQmF3gfMtA1">
        <mxGraphModel dx="817" dy="778" grid="1" gridSize="10" guides="1" tooltips="1" connect="1" arrows="1" fold="1" page="1" pageScale="1" pageWidth="850" pageHeight="1100" math="0" shadow="0">
            <root>
                <mxCell id="ZQYsvDMPHaJCcs1eiD08-0"/>
                <mxCell id="ZQYsvDMPHaJCcs1eiD08-1" parent="ZQYsvDMPHaJCcs1eiD08-0"/>
                <mxCell id="k0JyfprdbJy4ZOXYgo2P-0" value="node_store_timer" style="rounded=1;whiteSpace=wrap;html=1;align=left;verticalAlign=top;" parent="ZQYsvDMPHaJCcs1eiD08-1" vertex="1">
                    <mxGeometry x="190" y="200" width="310" height="60" as="geometry"/>
                </mxCell>
                <mxCell id="ZQYsvDMPHaJCcs1eiD08-2" value="topic_src" style="edgeStyle=none;html=1;" parent="ZQYsvDMPHaJCcs1eiD08-1" source="ZQYsvDMPHaJCcs1eiD08-3" target="ZQYsvDMPHaJCcs1eiD08-5" edge="1">
                    <mxGeometry relative="1" as="geometry"/>
                </mxCell>
                <mxCell id="ZQYsvDMPHaJCcs1eiD08-3" value="node_src" style="rounded=1;whiteSpace=wrap;html=1;" parent="ZQYsvDMPHaJCcs1eiD08-1" vertex="1">
                    <mxGeometry x="280" y="40" width="80" height="40" as="geometry"/>
                </mxCell>
                <mxCell id="ZQYsvDMPHaJCcs1eiD08-4" value="topic1" style="edgeStyle=none;html=1;" parent="ZQYsvDMPHaJCcs1eiD08-1" source="ZQYsvDMPHaJCcs1eiD08-5" target="o8ybwnjuCmNSozIBhdM--0" edge="1">
                    <mxGeometry x="-0.322" y="10" relative="1" as="geometry">
                        <mxPoint x="320" y="200" as="targetPoint"/>
                        <mxPoint as="offset"/>
                    </mxGeometry>
                </mxCell>
                <mxCell id="ZQYsvDMPHaJCcs1eiD08-5" value="node_1" style="rounded=1;whiteSpace=wrap;html=1;" parent="ZQYsvDMPHaJCcs1eiD08-1" vertex="1">
                    <mxGeometry x="280" y="120" width="80" height="40" as="geometry"/>
                </mxCell>
                <mxCell id="ZQYsvDMPHaJCcs1eiD08-6" value="topic2" style="edgeStyle=none;html=1;" parent="ZQYsvDMPHaJCcs1eiD08-1" target="ZQYsvDMPHaJCcs1eiD08-9" edge="1">
                    <mxGeometry relative="1" as="geometry">
                        <mxPoint x="370" y="249" as="sourcePoint"/>
                    </mxGeometry>
                </mxCell>
                <mxCell id="ZQYsvDMPHaJCcs1eiD08-8" value="topic_dst" style="edgeStyle=none;html=1;" parent="ZQYsvDMPHaJCcs1eiD08-1" source="ZQYsvDMPHaJCcs1eiD08-9" target="ZQYsvDMPHaJCcs1eiD08-10" edge="1">
                    <mxGeometry relative="1" as="geometry"/>
                </mxCell>
                <mxCell id="ZQYsvDMPHaJCcs1eiD08-9" value="node_3" style="rounded=1;whiteSpace=wrap;html=1;" parent="ZQYsvDMPHaJCcs1eiD08-1" vertex="1">
                    <mxGeometry x="330" y="291" width="80" height="40" as="geometry"/>
                </mxCell>
                <mxCell id="ZQYsvDMPHaJCcs1eiD08-10" value="node_dst" style="rounded=1;whiteSpace=wrap;html=1;" parent="ZQYsvDMPHaJCcs1eiD08-1" vertex="1">
                    <mxGeometry x="330" y="371" width="80" height="40" as="geometry"/>
                </mxCell>
                <mxCell id="ZQYsvDMPHaJCcs1eiD08-11" value="" style="verticalLabelPosition=bottom;html=1;verticalAlign=top;strokeWidth=2;shape=mxgraph.lean_mapping.physical_pull;pointerEvents=1;gradientColor=#ffffff;" parent="ZQYsvDMPHaJCcs1eiD08-1" vertex="1">
                    <mxGeometry x="370" y="50" width="20" height="20" as="geometry"/>
                </mxCell>
                <mxCell id="ZQYsvDMPHaJCcs1eiD08-12" value="10m (100Hz)" style="text;html=1;align=center;verticalAlign=middle;resizable=0;points=[];autosize=1;strokeColor=none;fillColor=none;" parent="ZQYsvDMPHaJCcs1eiD08-1" vertex="1">
                    <mxGeometry x="390" y="50" width="80" height="20" as="geometry"/>
                </mxCell>
                <mxCell id="ZQYsvDMPHaJCcs1eiD08-13" value="Latency: 2ms" style="text;html=1;align=left;verticalAlign=middle;resizable=0;points=[];autosize=1;strokeColor=none;fillColor=none;" parent="ZQYsvDMPHaJCcs1eiD08-1" vertex="1">
                    <mxGeometry x="370" y="130" width="90" height="20" as="geometry"/>
                </mxCell>
                <mxCell id="ZQYsvDMPHaJCcs1eiD08-14" value="Latency: 2ms" style="text;html=1;align=left;verticalAlign=middle;resizable=0;points=[];autosize=1;strokeColor=none;fillColor=none;" parent="ZQYsvDMPHaJCcs1eiD08-1" vertex="1">
                    <mxGeometry x="224" y="230" width="90" height="20" as="geometry"/>
                </mxCell>
                <mxCell id="ZQYsvDMPHaJCcs1eiD08-15" value="Latency: 2ms" style="text;html=1;align=left;verticalAlign=middle;resizable=0;points=[];autosize=1;strokeColor=none;fillColor=none;" parent="ZQYsvDMPHaJCcs1eiD08-1" vertex="1">
                    <mxGeometry x="410" y="301" width="90" height="20" as="geometry"/>
                </mxCell>
                <mxCell id="ZQYsvDMPHaJCcs1eiD08-16" value="&lt;div style=&quot;text-align: left&quot;&gt;&lt;span&gt;Publishes a msg by timer, while storing msgs&lt;/span&gt;&lt;/div&gt;" style="shape=callout;whiteSpace=wrap;html=1;perimeter=calloutPerimeter;direction=south;" parent="ZQYsvDMPHaJCcs1eiD08-1" vertex="1">
                    <mxGeometry x="510" y="200" width="175" height="55" as="geometry"/>
                </mxCell>
                <mxCell id="o8ybwnjuCmNSozIBhdM--0" value="cb0" style="rounded=1;whiteSpace=wrap;html=1;" parent="ZQYsvDMPHaJCcs1eiD08-1" vertex="1">
                    <mxGeometry x="300" y="219" width="40" height="30" as="geometry"/>
                </mxCell>
                <mxCell id="o8ybwnjuCmNSozIBhdM--1" value="cb1" style="rounded=1;whiteSpace=wrap;html=1;" parent="ZQYsvDMPHaJCcs1eiD08-1" vertex="1">
                    <mxGeometry x="350" y="219" width="40" height="30" as="geometry"/>
                </mxCell>
                <mxCell id="GuONYeDG6dY4GaZ_dMec-0" value="" style="verticalLabelPosition=bottom;html=1;verticalAlign=top;strokeWidth=2;shape=mxgraph.lean_mapping.physical_pull;pointerEvents=1;gradientColor=#ffffff;" parent="ZQYsvDMPHaJCcs1eiD08-1" vertex="1">
                    <mxGeometry x="396" y="219" width="20" height="20" as="geometry"/>
                </mxCell>
                <mxCell id="GuONYeDG6dY4GaZ_dMec-1" value="100m (10Hz)" style="text;html=1;align=center;verticalAlign=middle;resizable=0;points=[];autosize=1;strokeColor=none;fillColor=none;" parent="ZQYsvDMPHaJCcs1eiD08-1" vertex="1">
                    <mxGeometry x="416" y="219" width="80" height="20" as="geometry"/>
                </mxCell>
            </root>
        </mxGraphModel>
    </diagram>
    <diagram name="sample_store_timer_2" id="nxZ5rG1imtRKE81kn4x2">
        <mxGraphModel dx="817" dy="778" grid="1" gridSize="10" guides="1" tooltips="1" connect="1" arrows="1" fold="1" page="1" pageScale="1" pageWidth="850" pageHeight="1100" math="0" shadow="0">
            <root>
                <mxCell id="5Ek5CYQIQB1RXLuEIkTF-0"/>
                <mxCell id="5Ek5CYQIQB1RXLuEIkTF-1" parent="5Ek5CYQIQB1RXLuEIkTF-0"/>
                <mxCell id="aZEQ5ekfDnP5-HYKqE3I-0" value="node_store_timer" style="rounded=1;whiteSpace=wrap;html=1;align=left;verticalAlign=top;" parent="5Ek5CYQIQB1RXLuEIkTF-1" vertex="1">
                    <mxGeometry x="190" y="200" width="310" height="60" as="geometry"/>
                </mxCell>
                <mxCell id="aZEQ5ekfDnP5-HYKqE3I-1" value="topic_src" style="edgeStyle=none;html=1;" parent="5Ek5CYQIQB1RXLuEIkTF-1" source="aZEQ5ekfDnP5-HYKqE3I-2" target="aZEQ5ekfDnP5-HYKqE3I-4" edge="1">
                    <mxGeometry relative="1" as="geometry"/>
                </mxCell>
                <mxCell id="aZEQ5ekfDnP5-HYKqE3I-2" value="node_src" style="rounded=1;whiteSpace=wrap;html=1;" parent="5Ek5CYQIQB1RXLuEIkTF-1" vertex="1">
                    <mxGeometry x="280" y="40" width="80" height="40" as="geometry"/>
                </mxCell>
                <mxCell id="aZEQ5ekfDnP5-HYKqE3I-3" value="topic1" style="edgeStyle=none;html=1;" parent="5Ek5CYQIQB1RXLuEIkTF-1" source="aZEQ5ekfDnP5-HYKqE3I-4" target="aZEQ5ekfDnP5-HYKqE3I-15" edge="1">
                    <mxGeometry x="-0.322" y="10" relative="1" as="geometry">
                        <mxPoint x="320" y="200" as="targetPoint"/>
                        <mxPoint as="offset"/>
                    </mxGeometry>
                </mxCell>
                <mxCell id="aZEQ5ekfDnP5-HYKqE3I-4" value="node_1" style="rounded=1;whiteSpace=wrap;html=1;" parent="5Ek5CYQIQB1RXLuEIkTF-1" vertex="1">
                    <mxGeometry x="280" y="120" width="80" height="40" as="geometry"/>
                </mxCell>
                <mxCell id="aZEQ5ekfDnP5-HYKqE3I-5" value="topic2" style="edgeStyle=none;html=1;" parent="5Ek5CYQIQB1RXLuEIkTF-1" target="aZEQ5ekfDnP5-HYKqE3I-7" edge="1">
                    <mxGeometry relative="1" as="geometry">
                        <mxPoint x="370" y="249" as="sourcePoint"/>
                    </mxGeometry>
                </mxCell>
                <mxCell id="aZEQ5ekfDnP5-HYKqE3I-6" value="topic_dst" style="edgeStyle=none;html=1;" parent="5Ek5CYQIQB1RXLuEIkTF-1" source="aZEQ5ekfDnP5-HYKqE3I-7" target="aZEQ5ekfDnP5-HYKqE3I-8" edge="1">
                    <mxGeometry relative="1" as="geometry"/>
                </mxCell>
                <mxCell id="aZEQ5ekfDnP5-HYKqE3I-7" value="node_3" style="rounded=1;whiteSpace=wrap;html=1;" parent="5Ek5CYQIQB1RXLuEIkTF-1" vertex="1">
                    <mxGeometry x="330" y="291" width="80" height="40" as="geometry"/>
                </mxCell>
                <mxCell id="aZEQ5ekfDnP5-HYKqE3I-8" value="node_dst" style="rounded=1;whiteSpace=wrap;html=1;" parent="5Ek5CYQIQB1RXLuEIkTF-1" vertex="1">
                    <mxGeometry x="330" y="371" width="80" height="40" as="geometry"/>
                </mxCell>
                <mxCell id="aZEQ5ekfDnP5-HYKqE3I-9" value="" style="verticalLabelPosition=bottom;html=1;verticalAlign=top;strokeWidth=2;shape=mxgraph.lean_mapping.physical_pull;pointerEvents=1;gradientColor=#ffffff;" parent="5Ek5CYQIQB1RXLuEIkTF-1" vertex="1">
                    <mxGeometry x="370" y="50" width="20" height="20" as="geometry"/>
                </mxCell>
                <mxCell id="aZEQ5ekfDnP5-HYKqE3I-10" value="100m (10Hz)" style="text;html=1;align=center;verticalAlign=middle;resizable=0;points=[];autosize=1;strokeColor=none;fillColor=none;" parent="5Ek5CYQIQB1RXLuEIkTF-1" vertex="1">
                    <mxGeometry x="390" y="50" width="80" height="20" as="geometry"/>
                </mxCell>
                <mxCell id="aZEQ5ekfDnP5-HYKqE3I-11" value="Latency: 2ms" style="text;html=1;align=left;verticalAlign=middle;resizable=0;points=[];autosize=1;strokeColor=none;fillColor=none;" parent="5Ek5CYQIQB1RXLuEIkTF-1" vertex="1">
                    <mxGeometry x="370" y="130" width="90" height="20" as="geometry"/>
                </mxCell>
                <mxCell id="aZEQ5ekfDnP5-HYKqE3I-12" value="Latency: 2ms" style="text;html=1;align=left;verticalAlign=middle;resizable=0;points=[];autosize=1;strokeColor=none;fillColor=none;" parent="5Ek5CYQIQB1RXLuEIkTF-1" vertex="1">
                    <mxGeometry x="224" y="230" width="90" height="20" as="geometry"/>
                </mxCell>
                <mxCell id="aZEQ5ekfDnP5-HYKqE3I-13" value="Latency: 2ms" style="text;html=1;align=left;verticalAlign=middle;resizable=0;points=[];autosize=1;strokeColor=none;fillColor=none;" parent="5Ek5CYQIQB1RXLuEIkTF-1" vertex="1">
                    <mxGeometry x="410" y="301" width="90" height="20" as="geometry"/>
                </mxCell>
                <mxCell id="aZEQ5ekfDnP5-HYKqE3I-15" value="cb0" style="rounded=1;whiteSpace=wrap;html=1;" parent="5Ek5CYQIQB1RXLuEIkTF-1" vertex="1">
                    <mxGeometry x="300" y="219" width="40" height="30" as="geometry"/>
                </mxCell>
                <mxCell id="aZEQ5ekfDnP5-HYKqE3I-16" value="cb1" style="rounded=1;whiteSpace=wrap;html=1;" parent="5Ek5CYQIQB1RXLuEIkTF-1" vertex="1">
                    <mxGeometry x="350" y="219" width="40" height="30" as="geometry"/>
                </mxCell>
                <mxCell id="aZEQ5ekfDnP5-HYKqE3I-17" value="" style="verticalLabelPosition=bottom;html=1;verticalAlign=top;strokeWidth=2;shape=mxgraph.lean_mapping.physical_pull;pointerEvents=1;gradientColor=#ffffff;" parent="5Ek5CYQIQB1RXLuEIkTF-1" vertex="1">
                    <mxGeometry x="396" y="219" width="20" height="20" as="geometry"/>
                </mxCell>
                <mxCell id="aZEQ5ekfDnP5-HYKqE3I-18" value="10m (100Hz)" style="text;html=1;align=center;verticalAlign=middle;resizable=0;points=[];autosize=1;strokeColor=none;fillColor=none;" parent="5Ek5CYQIQB1RXLuEIkTF-1" vertex="1">
                    <mxGeometry x="416" y="219" width="80" height="20" as="geometry"/>
                </mxCell>
                <mxCell id="aZEQ5ekfDnP5-HYKqE3I-19" value="&lt;div style=&quot;text-align: left&quot;&gt;&lt;span&gt;Publishes a msg by timer, while storing msgs&lt;/span&gt;&lt;/div&gt;" style="shape=callout;whiteSpace=wrap;html=1;perimeter=calloutPerimeter;direction=south;" parent="5Ek5CYQIQB1RXLuEIkTF-1" vertex="1">
                    <mxGeometry x="510" y="200" width="175" height="55" as="geometry"/>
                </mxCell>
            </root>
        </mxGraphModel>
    </diagram>
    <diagram name="sample_store_timer_3" id="iV46J_DTQQfhFLbKwfTK">
        <mxGraphModel dx="817" dy="778" grid="1" gridSize="10" guides="1" tooltips="1" connect="1" arrows="1" fold="1" page="1" pageScale="1" pageWidth="850" pageHeight="1100" math="0" shadow="0">
            <root>
                <mxCell id="MmwfjTlaKQiyMe6RbJew-0"/>
                <mxCell id="MmwfjTlaKQiyMe6RbJew-1" parent="MmwfjTlaKQiyMe6RbJew-0"/>
                <mxCell id="MmwfjTlaKQiyMe6RbJew-16" value="&lt;div style=&quot;text-align: left&quot;&gt;&lt;span&gt;Publishes a msg by timer, if a msg is received&lt;/span&gt;&lt;/div&gt;" style="shape=callout;whiteSpace=wrap;html=1;perimeter=calloutPerimeter;direction=south;" parent="MmwfjTlaKQiyMe6RbJew-1" vertex="1">
                    <mxGeometry x="510" y="212.5" width="175" height="55" as="geometry"/>
                </mxCell>
                <mxCell id="NmwSXMErZoSHxq11MDUp-0" value="node_store_timer" style="rounded=1;whiteSpace=wrap;html=1;align=left;verticalAlign=top;" parent="MmwfjTlaKQiyMe6RbJew-1" vertex="1">
                    <mxGeometry x="190" y="200" width="310" height="60" as="geometry"/>
                </mxCell>
                <mxCell id="NmwSXMErZoSHxq11MDUp-1" value="topic_src" style="edgeStyle=none;html=1;" parent="MmwfjTlaKQiyMe6RbJew-1" source="NmwSXMErZoSHxq11MDUp-2" target="NmwSXMErZoSHxq11MDUp-4" edge="1">
                    <mxGeometry relative="1" as="geometry"/>
                </mxCell>
                <mxCell id="NmwSXMErZoSHxq11MDUp-2" value="node_src" style="rounded=1;whiteSpace=wrap;html=1;" parent="MmwfjTlaKQiyMe6RbJew-1" vertex="1">
                    <mxGeometry x="280" y="40" width="80" height="40" as="geometry"/>
                </mxCell>
                <mxCell id="NmwSXMErZoSHxq11MDUp-3" value="topic1" style="edgeStyle=none;html=1;" parent="MmwfjTlaKQiyMe6RbJew-1" source="NmwSXMErZoSHxq11MDUp-4" target="NmwSXMErZoSHxq11MDUp-14" edge="1">
                    <mxGeometry x="-0.322" y="10" relative="1" as="geometry">
                        <mxPoint x="320" y="200" as="targetPoint"/>
                        <mxPoint as="offset"/>
                    </mxGeometry>
                </mxCell>
                <mxCell id="NmwSXMErZoSHxq11MDUp-4" value="node_1" style="rounded=1;whiteSpace=wrap;html=1;" parent="MmwfjTlaKQiyMe6RbJew-1" vertex="1">
                    <mxGeometry x="280" y="120" width="80" height="40" as="geometry"/>
                </mxCell>
                <mxCell id="NmwSXMErZoSHxq11MDUp-5" value="topic2" style="edgeStyle=none;html=1;" parent="MmwfjTlaKQiyMe6RbJew-1" target="NmwSXMErZoSHxq11MDUp-7" edge="1">
                    <mxGeometry relative="1" as="geometry">
                        <mxPoint x="370" y="249" as="sourcePoint"/>
                    </mxGeometry>
                </mxCell>
                <mxCell id="NmwSXMErZoSHxq11MDUp-6" value="topic_dst" style="edgeStyle=none;html=1;" parent="MmwfjTlaKQiyMe6RbJew-1" source="NmwSXMErZoSHxq11MDUp-7" target="NmwSXMErZoSHxq11MDUp-8" edge="1">
                    <mxGeometry relative="1" as="geometry"/>
                </mxCell>
                <mxCell id="NmwSXMErZoSHxq11MDUp-7" value="node_3" style="rounded=1;whiteSpace=wrap;html=1;" parent="MmwfjTlaKQiyMe6RbJew-1" vertex="1">
                    <mxGeometry x="330" y="291" width="80" height="40" as="geometry"/>
                </mxCell>
                <mxCell id="NmwSXMErZoSHxq11MDUp-8" value="node_dst" style="rounded=1;whiteSpace=wrap;html=1;" parent="MmwfjTlaKQiyMe6RbJew-1" vertex="1">
                    <mxGeometry x="330" y="371" width="80" height="40" as="geometry"/>
                </mxCell>
                <mxCell id="NmwSXMErZoSHxq11MDUp-9" value="" style="verticalLabelPosition=bottom;html=1;verticalAlign=top;strokeWidth=2;shape=mxgraph.lean_mapping.physical_pull;pointerEvents=1;gradientColor=#ffffff;" parent="MmwfjTlaKQiyMe6RbJew-1" vertex="1">
                    <mxGeometry x="370" y="50" width="20" height="20" as="geometry"/>
                </mxCell>
                <mxCell id="NmwSXMErZoSHxq11MDUp-10" value="100m (10Hz)" style="text;html=1;align=center;verticalAlign=middle;resizable=0;points=[];autosize=1;strokeColor=none;fillColor=none;" parent="MmwfjTlaKQiyMe6RbJew-1" vertex="1">
                    <mxGeometry x="390" y="50" width="80" height="20" as="geometry"/>
                </mxCell>
                <mxCell id="NmwSXMErZoSHxq11MDUp-11" value="Latency: 2ms" style="text;html=1;align=left;verticalAlign=middle;resizable=0;points=[];autosize=1;strokeColor=none;fillColor=none;" parent="MmwfjTlaKQiyMe6RbJew-1" vertex="1">
                    <mxGeometry x="370" y="130" width="90" height="20" as="geometry"/>
                </mxCell>
                <mxCell id="NmwSXMErZoSHxq11MDUp-12" value="Latency: 2ms" style="text;html=1;align=left;verticalAlign=middle;resizable=0;points=[];autosize=1;strokeColor=none;fillColor=none;" parent="MmwfjTlaKQiyMe6RbJew-1" vertex="1">
                    <mxGeometry x="224" y="230" width="90" height="20" as="geometry"/>
                </mxCell>
                <mxCell id="NmwSXMErZoSHxq11MDUp-13" value="Latency: 2ms" style="text;html=1;align=left;verticalAlign=middle;resizable=0;points=[];autosize=1;strokeColor=none;fillColor=none;" parent="MmwfjTlaKQiyMe6RbJew-1" vertex="1">
                    <mxGeometry x="410" y="301" width="90" height="20" as="geometry"/>
                </mxCell>
                <mxCell id="NmwSXMErZoSHxq11MDUp-14" value="cb0" style="rounded=1;whiteSpace=wrap;html=1;" parent="MmwfjTlaKQiyMe6RbJew-1" vertex="1">
                    <mxGeometry x="300" y="219" width="40" height="30" as="geometry"/>
                </mxCell>
                <mxCell id="NmwSXMErZoSHxq11MDUp-15" value="cb1" style="rounded=1;whiteSpace=wrap;html=1;" parent="MmwfjTlaKQiyMe6RbJew-1" vertex="1">
                    <mxGeometry x="350" y="219" width="40" height="30" as="geometry"/>
                </mxCell>
                <mxCell id="NmwSXMErZoSHxq11MDUp-16" value="" style="verticalLabelPosition=bottom;html=1;verticalAlign=top;strokeWidth=2;shape=mxgraph.lean_mapping.physical_pull;pointerEvents=1;gradientColor=#ffffff;" parent="MmwfjTlaKQiyMe6RbJew-1" vertex="1">
                    <mxGeometry x="396" y="219" width="20" height="20" as="geometry"/>
                </mxCell>
                <mxCell id="NmwSXMErZoSHxq11MDUp-17" value="10m (100Hz)" style="text;html=1;align=center;verticalAlign=middle;resizable=0;points=[];autosize=1;strokeColor=none;fillColor=none;" parent="MmwfjTlaKQiyMe6RbJew-1" vertex="1">
                    <mxGeometry x="416" y="219" width="80" height="20" as="geometry"/>
                </mxCell>
            </root>
        </mxGraphModel>
    </diagram>
</mxfile>